<?xml version="1.0" encoding="UTF-8" standalone="no"?>
<svg
   xmlns:dc="http://purl.org/dc/elements/1.1/"
   xmlns:cc="http://creativecommons.org/ns#"
   xmlns:rdf="http://www.w3.org/1999/02/22-rdf-syntax-ns#"
   xmlns:svg="http://www.w3.org/2000/svg"
   xmlns="http://www.w3.org/2000/svg"
   viewBox="0 0 666.66669 666.66669"
   height="666.66669"
   width="666.66669"
   xml:space="preserve"
   id="svg2"
   version="1.1"><metadata
     id="metadata8"><rdf:RDF><cc:Work
         rdf:about=""><dc:format>image/svg+xml</dc:format><dc:type
           rdf:resource="http://purl.org/dc/dcmitype/StillImage" /></cc:Work></rdf:RDF></metadata><defs
     id="defs6"><clipPath
       id="clipPath18"
       clipPathUnits="userSpaceOnUse"><path
         id="path16"
         d="M 0,500 H 500 V 0 H 0 Z" /></clipPath><clipPath
       id="clipPath26"
       clipPathUnits="userSpaceOnUse"><path
         id="path24"
         d="M 54.464,174.802 H 81.8307 V 39.3024 H 54.464 Z" /></clipPath><clipPath
       id="clipPath42"
       clipPathUnits="userSpaceOnUse"><path
         id="path40"
         d="M 16,174.802 H 43.3667 V 39.3024 H 16 Z" /></clipPath><clipPath
       id="clipPath58"
       clipPathUnits="userSpaceOnUse"><path
         id="path56"
         d="m 416.047,174.802 h 27.384 V 39.3024 h -27.384 z" /></clipPath><clipPath
       id="clipPath74"
       clipPathUnits="userSpaceOnUse"><path
         id="path72"
         d="M 452.633,174.802 H 480 V 39.3024 h -27.367 z" /></clipPath></defs><g
     transform="matrix(1.3333333,0,0,-1.3333333,0,666.66667)"
     id="g10"><g
       id="g12"><g
         clip-path="url(#clipPath18)"
         id="g14"><g
           id="g20"><g
             id="g22" /><g
             id="g34"><g
               style="opacity:0.5"
               id="g32"
               clip-path="url(#clipPath26)"><g
                 id="g30"
                 transform="translate(65.0586,107.0518)"><path
                   id="path28"
                   style="fill:#ffffff;fill-opacity:1;fill-rule:nonzero;stroke:none"
                   d="m 0,0 c 0,21.125 5.736,40.604 15.297,55.243 3.139,4.806 0.849,12.507 -3.799,12.507 H 11.463 C 9.997,67.75 8.572,66.926 7.581,65.412 -3.77,48.088 -10.595,25.035 -10.595,0 c 0,-25.043 6.83,-48.152 18.255,-65.436 0.991,-1.499 2.409,-2.313 3.867,-2.313 4.654,0 6.939,7.714 3.792,12.52 C 5.747,-40.616 0,-21.145 0,0" /></g></g></g></g><g
           id="g36"><g
             id="g38" /><g
             id="g50"><g
               style="opacity:0.5"
               id="g48"
               clip-path="url(#clipPath42)"><g
                 id="g46"
                 transform="translate(26.5952,107.0518)"><path
                   id="path44"
                   style="fill:#ffffff;fill-opacity:1;fill-rule:nonzero;stroke:none"
                   d="m 0,0 c 0,21.125 5.736,40.604 15.296,55.243 3.14,4.806 0.85,12.507 -3.798,12.507 H 11.462 C 9.997,67.75 8.572,66.926 7.581,65.412 -3.77,48.088 -10.595,25.035 -10.595,0 c 0,-25.043 6.829,-48.152 18.254,-65.436 0.991,-1.499 2.409,-2.313 3.867,-2.313 4.655,0 6.94,7.714 3.792,12.52 C 5.747,-40.616 0,-21.145 0,0" /></g></g></g></g><g
           id="g52"><g
             id="g54" /><g
             id="g66"><g
               style="opacity:0.5"
               id="g64"
               clip-path="url(#clipPath58)"><g
                 id="g62"
                 transform="translate(421.373,174.8018)"><path
                   id="path60"
                   style="fill:#ffffff;fill-opacity:1;fill-rule:nonzero;stroke:none"
                   d="m 0,0 h -0.052 c -4.65,0 -6.939,-7.707 -3.796,-12.512 9.577,-14.638 15.311,-34.116 15.311,-55.238 0,-21.142 -5.745,-40.612 -15.332,-55.225 -3.152,-4.803 -0.868,-12.524 3.788,-12.524 h 0.017 c 1.459,0 2.876,0.814 3.867,2.313 11.425,17.284 18.255,40.393 18.255,65.436 0,25.035 -6.826,48.088 -18.176,65.412 C 2.891,-0.824 1.466,0 0,0" /></g></g></g></g><g
           id="g68"><g
             id="g70" /><g
             id="g82"><g
               style="opacity:0.5"
               id="g80"
               clip-path="url(#clipPath74)"><g
                 id="g78"
                 transform="translate(457.9424,174.8018)"><path
                   id="path76"
                   style="fill:#ffffff;fill-opacity:1;fill-rule:nonzero;stroke:none"
                   d="m 0,0 h -0.035 c -4.649,0 -6.938,-7.701 -3.799,-12.507 9.561,-14.639 15.297,-34.118 15.297,-55.243 0,-21.145 -5.747,-40.616 -15.319,-55.229 -3.148,-4.806 -0.863,-12.52 3.792,-12.52 1.459,0 2.877,0.814 3.867,2.313 11.425,17.284 18.255,40.393 18.255,65.436 0,25.035 -6.826,48.088 -18.176,65.412 C 2.89,-0.824 1.466,0 0,0" /></g></g></g></g><g
           transform="translate(246.5825,14.8516)"
           id="g84"><path
             id="path86"
             style="fill:#ffffff;fill-opacity:1;fill-rule:nonzero;stroke:none"
             d="M 0,0 C -26.09,0.003 -48.656,24.092 -55.879,58.423 L 55.885,58.409 C 48.659,24.08 26.09,-0.003 0,0 m 122.605,149.247 c -6.22,6.006 -9.933,15.913 -9.932,26.5 l 0.001,16.483 c 0,4.101 -2.371,7.426 -5.297,7.426 -2.925,0.001 -5.297,-3.323 -5.297,-7.425 l -0.002,-16.483 c 0,-15.474 5.424,-29.952 14.515,-38.729 10.813,-10.445 17.267,-27.666 17.266,-46.071 l -0.002,-17.697 -64.951,0.008 -137.802,0.017 -62.127,0.007 0.002,18.172 c 0,18.366 6.675,35.236 17.425,45.739 8.997,8.791 14.365,23.193 14.365,38.577 l 0.008,121.766 c 0.004,69.482 36.931,129.48 85.894,139.563 l 4.527,0.931 10e-4,19.529 c 10e-4,6.441 3.405,12.079 7.981,12.681 5.249,0.69 9.678,-5.104 9.678,-12.321 l -0.001,-19.54 4.668,-0.784 c 18.865,-3.165 36.462,-13.622 51.193,-30.361 2.187,-2.484 5.383,-2.105 7.26,0.835 2.021,3.165 1.739,8.06 -0.615,10.734 -15.058,17.1 -32.826,28.268 -51.91,32.615 v 5.92 c 0.001,14.816 -8.27,27.356 -18.835,27.797 -10.978,0.458 -20.013,-11.927 -20.014,-27.213 v -7.198 c -24.388,-6.486 -46.649,-24.372 -63.087,-50.823 -17.626,-28.357 -27.333,-64.711 -27.335,-102.364 l -0.008,-121.765 c -0.001,-10.517 -3.629,-20.446 -9.82,-26.388 -13.754,-13.201 -21.97,-35.049 -21.971,-58.405 l -0.002,-32.547 74.785,-0.01 c 7.528,-42.808 34.945,-73.271 66.833,-73.275 31.888,-0.003 59.309,30.453 66.843,73.26 l 77.61,-0.01 0.002,32.548 c 0.002,23.289 -8.166,45.084 -21.849,58.301" /></g><g
           transform="translate(349.7246,251.4727)"
           id="g88"><path
             id="path90"
             style="fill:#ffffff;fill-opacity:1;fill-rule:nonzero;stroke:none"
             d="m 0,0 c -28.238,0.003 -51.209,32.208 -51.206,71.789 0.002,39.58 22.977,71.779 51.215,71.775 C 28.246,143.561 51.217,111.357 51.214,71.776 51.212,32.195 28.237,-0.003 0,0 m 0.01,158.416 c -34.08,0.004 -61.809,-38.856 -61.812,-86.626 -0.003,-47.77 27.72,-86.638 61.8,-86.642 34.08,-0.003 61.809,38.856 61.812,86.627 0.003,47.77 -27.721,86.637 -61.8,86.641" /></g><g
           transform="translate(351.8506,362.8584)"
           id="g92"><path
             id="path94"
             style="fill:#ffffff;fill-opacity:1;fill-rule:nonzero;stroke:none"
             d="M 0,0 V 0 C 2.926,-0.001 5.297,-3.325 5.297,-7.427 L 5.294,-50.001 c 0,-4.102 -2.372,-7.425 -5.298,-7.425 -2.926,0 -5.297,3.325 -5.297,7.426 l 0.003,42.574 C -5.298,-3.324 -2.926,0 0,0" /></g><g
           transform="translate(351.8467,295.5317)"
           id="g96"><path
             id="path98"
             style="fill:#ffffff;fill-opacity:1;fill-rule:nonzero;stroke:none"
             d="m 0,0 v 0 c 2.925,0 5.297,-3.325 5.297,-7.426 0,-4.101 -2.372,-7.426 -5.299,-7.426 -2.925,10e-4 -5.297,3.326 -5.297,7.427 C -5.299,-3.324 -2.927,0 0,0" /></g><g
           transform="translate(266.7324,330.6909)"
           id="g100"><path
             id="path102"
             style="fill:#ffffff;fill-opacity:1;fill-rule:nonzero;stroke:none"
             d="M 0,0 V 0 C 2.927,-0.001 5.298,-3.325 5.298,-7.427 5.297,-11.528 2.926,-14.852 0,-14.852 c -2.927,0 -5.298,3.326 -5.298,7.427 C -5.297,-3.324 -2.925,0 0,0" /></g><g
           transform="translate(224.3525,330.6963)"
           id="g104"><path
             id="path106"
             style="fill:#ffffff;fill-opacity:1;fill-rule:nonzero;stroke:none"
             d="m 0,0 v 0 c 2.926,0 5.297,-3.326 5.297,-7.427 0,-4.101 -2.372,-7.426 -5.297,-7.425 -2.927,0 -5.298,3.325 -5.298,7.426 C -5.298,-3.324 -2.926,0 0,0" /></g><g
           transform="translate(245.543,330.6934)"
           id="g108"><path
             id="path110"
             style="fill:#ffffff;fill-opacity:1;fill-rule:nonzero;stroke:none"
             d="m 0,0 v 0 c 2.926,0 5.297,-3.325 5.297,-7.426 0,-4.102 -2.372,-7.426 -5.297,-7.426 -2.927,10e-4 -5.298,3.326 -5.298,7.427 C -5.297,-3.324 -2.926,0 0,0" /></g></g></g></g></svg>