<?xml version="1.0" encoding="UTF-8" standalone="no"?>
<svg
   xmlns:dc="http://purl.org/dc/elements/1.1/"
   xmlns:cc="http://creativecommons.org/ns#"
   xmlns:rdf="http://www.w3.org/1999/02/22-rdf-syntax-ns#"
   xmlns:svg="http://www.w3.org/2000/svg"
   xmlns="http://www.w3.org/2000/svg"
   viewBox="0 0 666.66669 666.66669"
   height="666.66669"
   width="666.66669"
   xml:space="preserve"
   id="svg2"
   version="1.1"><metadata
     id="metadata8"><rdf:RDF><cc:Work
         rdf:about=""><dc:format>image/svg+xml</dc:format><dc:type
           rdf:resource="http://purl.org/dc/dcmitype/StillImage" /></cc:Work></rdf:RDF></metadata><defs
     id="defs6"><clipPath
       id="clipPath18"
       clipPathUnits="userSpaceOnUse"><path
         id="path16"
         d="M 0,500 H 500 V 0 H 0 Z" /></clipPath><clipPath
       id="clipPath74"
       clipPathUnits="userSpaceOnUse"><path
         id="path72"
         d="M 0,500 H 500 V 0 H 0 Z" /></clipPath><clipPath
       id="clipPath130"
       clipPathUnits="userSpaceOnUse"><path
         id="path128"
         d="M 0,500 H 500 V 0 H 0 Z" /></clipPath><clipPath
       id="clipPath170"
       clipPathUnits="userSpaceOnUse"><path
         id="path168"
         d="M 0,500 H 500 V 0 H 0 Z" /></clipPath><clipPath
       id="clipPath194"
       clipPathUnits="userSpaceOnUse"><path
         id="path192"
         d="M 0,500 H 500 V 0 H 0 Z" /></clipPath><clipPath
       id="clipPath274"
       clipPathUnits="userSpaceOnUse"><path
         id="path272"
         d="m 203.446,284.343 h 8.973 V 253.77 h -8.973 z" /></clipPath><clipPath
       id="clipPath290"
       clipPathUnits="userSpaceOnUse"><path
         id="path288"
         d="M 244.306,306.524 H 257.88 V 296.259 H 244.306 Z" /></clipPath></defs><g
     transform="matrix(1.3333333,0,0,-1.3333333,0,666.66667)"
     id="g10"><g
       id="g12"><g
         clip-path="url(#clipPath18)"
         id="g14"><g
           transform="translate(434.734,291.3205)"
           id="g20"><path
             id="path22"
             style="fill:#f5f5f5;fill-opacity:1;fill-rule:nonzero;stroke:none"
             d="m 0,0 v -59.444 c 0,-10.755 -6.986,-19.473 -15.605,-19.473 h -170.808 c -8.62,0 -15.607,8.718 -15.607,19.473 v 50.228 l -21.264,27.88 207.63,0.81 C -7.017,19.508 0,10.779 0,0" /></g><g
           transform="translate(257.8932,274.7805)"
           id="g24"><path
             id="path26"
             style="fill:#e0e0e0;fill-opacity:1;fill-rule:nonzero;stroke:none"
             d="M 0,0 154.997,0.894 154.98,6.838 -0.016,5.944 Z" /></g><g
           transform="translate(257.8932,255.2228)"
           id="g28"><path
             id="path30"
             style="fill:#e0e0e0;fill-opacity:1;fill-rule:nonzero;stroke:none"
             d="M 0,0 154.997,0.893 154.98,6.838 -0.016,5.944 Z" /></g><g
           transform="translate(257.8932,236.1599)"
           id="g32"><path
             id="path34"
             style="fill:#e0e0e0;fill-opacity:1;fill-rule:nonzero;stroke:none"
             d="M 0,0 61.327,0.376 61.309,6.321 -0.019,5.944 Z" /></g><g
           transform="translate(60.2326,139.2214)"
           id="g36"><path
             id="path38"
             style="fill:#a8e8ce;fill-opacity:1;fill-rule:nonzero;stroke:none"
             d="m 0,0 v -57.212 c 0,-10.351 6.986,-18.743 15.605,-18.743 h 170.809 c 8.619,0 15.606,8.392 15.606,18.743 V -8.87 L 223.285,17.964 15.654,18.742 C 7.017,18.775 0,10.374 0,0" /></g><g
           transform="translate(237.8161,105.9645)"
           id="g40"><path
             id="path42"
             style="fill:#f5f5f5;fill-opacity:1;fill-rule:nonzero;stroke:none"
             d="m 0,0 -154.998,0.859 0.017,5.723 154.997,-0.86 z" /></g><g
           transform="translate(237.8161,127.5905)"
           id="g44"><path
             id="path46"
             style="fill:#f5f5f5;fill-opacity:1;fill-rule:nonzero;stroke:none"
             d="m 0,0 -154.998,0.859 0.017,5.723 154.997,-0.86 z" /></g><g
           transform="translate(239.3605,84.3259)"
           id="g48"><path
             id="path50"
             style="fill:#f5f5f5;fill-opacity:1;fill-rule:nonzero;stroke:none"
             d="m 0,0 -154.998,0.86 0.017,5.722 154.997,-0.86 z" /></g><g
           transform="translate(208.3165,404.2902)"
           id="g52"><path
             id="path54"
             style="fill:#d3f4e7;fill-opacity:1;fill-rule:nonzero;stroke:none"
             d="m 0,0 v -25.147 c 0,-13.129 -0.126,-23.771 -11.383,-23.771 h -112.255 c -5.717,0 -10.351,5.404 -10.351,12.071 0.225,10.412 -0.549,25.489 -0.323,35.901 0.132,6.129 4.498,11.366 9.854,11.366 19.349,0 98.082,0.485 114.075,0.485 C -4.654,10.926 0,6.682 0,0" /></g><g
           transform="translate(87.8717,400.4094)"
           id="g56"><path
             id="path58"
             style="fill:#f5f5f5;fill-opacity:1;fill-rule:nonzero;stroke:none"
             d="M 0,0 102.802,0.554 102.791,-5.091 -0.01,-5.645 Z" /></g><g
           transform="translate(87.8717,388.2863)"
           id="g60"><path
             id="path62"
             style="fill:#f5f5f5;fill-opacity:1;fill-rule:nonzero;stroke:none"
             d="M 0,0 102.802,0.554 102.791,-5.091 -0.01,-5.646 Z" /></g><g
           transform="translate(87.8717,376.4694)"
           id="g64"><path
             id="path66"
             style="fill:#f5f5f5;fill-opacity:1;fill-rule:nonzero;stroke:none"
             d="M 0,0 40.675,0.233 40.663,-5.412 -0.013,-5.645 Z" /></g></g></g><g
       id="g68"><g
         clip-path="url(#clipPath74)"
         id="g70"><g
           transform="translate(320.5992,104.3483)"
           id="g76"><path
             id="path78"
             style="fill:#1c9564;fill-opacity:1;fill-rule:nonzero;stroke:none"
             d="m 0,0 c -16.933,16.488 -17.211,41.992 -12.806,64.155 0.736,3.699 0.969,7.689 3.273,10.663 2.304,2.974 6.799,4.529 9.873,2.415 2.55,-1.752 3.227,-5.163 4.338,-8.074 1.477,-3.873 4.061,-7.301 7.361,-9.762 2.167,-1.617 4.976,-2.848 7.525,-1.941 3.498,1.245 4.603,5.616 5.186,9.32 1.085,6.905 2.172,13.807 3.258,20.709 0.583,3.704 1.19,7.484 2.916,10.807 1.725,3.323 4.803,6.169 8.483,6.579 3.682,0.409 7.702,-2.333 7.853,-6.076 0.062,-1.558 -0.501,-3.071 -0.65,-4.624 -0.148,-1.553 0.289,-3.369 1.678,-4.036 1.405,-0.676 3.058,0.131 4.341,1.032 4.431,3.111 7.81,7.499 11.016,11.889 3.206,4.389 6.359,8.905 10.491,12.412 4.133,3.508 9.454,5.952 14.802,5.385 5.349,-0.569 10.458,-4.763 10.946,-10.184 0.489,-5.437 -3.421,-10.231 -7.424,-13.911 C 86.521,91.297 79.802,86.709 72.58,83.182 71.278,82.545 69.867,81.857 69.197,80.56 c -1.208,-2.335 0.729,-5.168 3.032,-6.378 2.607,-1.37 5.647,-1.574 8.476,-2.385 2.829,-0.813 5.746,-2.597 6.392,-5.502 0.896,-4.03 -2.916,-7.477 -6.453,-9.564 -7.083,-4.178 -14.872,-7.12 -22.918,-8.659 -2.885,-0.55 -5.893,-0.954 -8.401,-2.507 -2.508,-1.554 -4.377,-4.662 -3.477,-7.485 0.899,-2.826 4.166,-4.218 7.104,-4.155 2.937,0.061 5.742,1.191 8.627,1.772 5.4,1.086 11.908,-0.339 14.445,-5.266 1.668,-3.24 1.199,-7.293 -0.449,-10.559 C 73.93,16.605 71.248,13.999 68.469,11.646 58.754,3.419 47.061,-2.57 34.596,-4.729 22.131,-6.889 11.021,-6.206 0,0" /></g><g
           transform="translate(317.6012,87.8737)"
           id="g80"><path
             id="path82"
             style="fill:#263238;fill-opacity:1;fill-rule:nonzero;stroke:none"
             d="m 0,0 c 2.253,8.696 5.896,18.807 11.038,29.505 5.122,10.71 11.709,21.984 19.005,33.54 1.834,2.882 3.647,5.729 5.434,8.536 1.789,2.797 3.564,5.572 5.467,8.178 3.785,5.23 7.823,9.97 11.796,14.349 3.973,4.383 7.903,8.398 11.604,12.124 3.712,3.72 7.236,7.122 10.581,10.086 6.674,5.955 12.613,10.112 16.807,12.799 2.095,1.351 3.754,2.345 4.889,3.004 0.545,0.312 0.972,0.557 1.294,0.741 0.294,0.162 0.446,0.242 0.452,0.232 0.007,-0.011 -0.135,-0.111 -0.416,-0.293 -0.313,-0.199 -0.73,-0.464 -1.26,-0.8 -1.109,-0.698 -2.744,-1.729 -4.815,-3.111 -4.143,-2.754 -10.017,-6.957 -16.63,-12.941 -3.314,-2.978 -6.81,-6.392 -10.498,-10.126 C 61.065,102.082 57.157,98.06 53.206,93.676 49.257,89.296 45.245,84.563 41.489,79.357 39.6,76.763 37.844,74.011 36.052,71.205 34.267,68.4 32.456,65.553 30.623,62.672 23.335,51.125 16.746,39.889 11.607,29.226 6.451,18.575 2.775,8.524 0.471,-0.126" /></g><g
           transform="translate(358.7438,167.6276)"
           id="g84"><path
             id="path86"
             style="fill:#263238;fill-opacity:1;fill-rule:nonzero;stroke:none"
             d="m 0,0 c -0.047,0 -0.08,0.583 -0.103,1.638 -0.027,1.053 -0.015,2.58 0.027,4.466 0.08,3.769 0.368,8.971 0.707,14.705 0.34,5.737 0.554,10.928 0.576,14.689 0.016,1.88 0.015,3.402 -0.001,4.454 -0.009,1.053 0.009,1.637 0.057,1.64 0.048,0.003 0.12,-0.575 0.211,-1.627 C 1.571,38.915 1.648,37.39 1.693,35.504 1.797,31.73 1.659,26.515 1.318,20.772 0.97,15.114 0.653,9.996 0.411,6.086 0.312,4.318 0.231,2.829 0.166,1.633 0.104,0.582 0.049,-0.001 0,0" /></g><g
           transform="translate(407.7711,168.7292)"
           id="g88"><path
             id="path90"
             style="fill:#263238;fill-opacity:1;fill-rule:nonzero;stroke:none"
             d="m 0,0 c -0.007,-0.047 -0.696,-0.015 -1.935,0.084 -1.239,0.091 -3.03,0.232 -5.248,0.337 -4.434,0.243 -10.571,0.364 -17.347,0.201 -6.779,-0.175 -12.906,-0.594 -17.328,-1.024 -2.215,-0.201 -4.001,-0.41 -5.238,-0.548 -1.236,-0.143 -1.923,-0.199 -1.931,-0.152 -0.007,0.048 0.668,0.195 1.894,0.421 1.228,0.22 3.011,0.505 5.225,0.77 4.422,0.557 10.566,1.056 17.365,1.231 6.796,0.162 12.954,-0.037 17.394,-0.407 C -4.928,0.745 -3.138,0.529 -1.904,0.354 -0.672,0.171 0.005,0.049 0,0" /></g><g
           transform="translate(329.3678,118.1579)"
           id="g92"><path
             id="path94"
             style="fill:#263238;fill-opacity:1;fill-rule:nonzero;stroke:none"
             d="m 0,0 c -0.023,-0.006 -0.103,0.211 -0.231,0.634 -0.144,0.501 -0.32,1.113 -0.533,1.853 -0.454,1.613 -1.05,3.963 -1.751,6.876 -1.402,5.825 -3.087,13.933 -4.825,22.905 -1.739,8.975 -3.346,17.087 -4.625,22.934 -0.631,2.843 -1.15,5.182 -1.535,6.921 -0.164,0.754 -0.298,1.375 -0.407,1.886 -0.086,0.431 -0.12,0.662 -0.097,0.67 0.024,0.005 0.102,-0.213 0.232,-0.635 0.143,-0.502 0.319,-1.112 0.531,-1.854 0.455,-1.612 1.052,-3.961 1.751,-6.875 1.403,-5.825 3.088,-13.933 4.826,-22.909 C -4.925,23.434 -3.318,15.322 -2.039,9.475 -1.407,6.633 -0.89,4.293 -0.504,2.556 -0.341,1.802 -0.207,1.179 -0.097,0.67 -0.011,0.236 0.023,0.006 0,0" /></g><g
           transform="translate(395.9176,128.1813)"
           id="g96"><path
             id="path98"
             style="fill:#263238;fill-opacity:1;fill-rule:nonzero;stroke:none"
             d="m 0,0 c 0.002,-0.023 -0.229,-0.076 -0.67,-0.155 -0.521,-0.085 -1.161,-0.189 -1.936,-0.316 -1.786,-0.271 -4.197,-0.638 -7.129,-1.085 -6.019,-0.918 -14.318,-2.281 -23.486,-3.799 -9.17,-1.521 -17.489,-2.808 -23.529,-3.601 -3.02,-0.398 -5.467,-0.695 -7.161,-0.865 -0.782,-0.075 -1.428,-0.135 -1.952,-0.186 -0.448,-0.035 -0.685,-0.041 -0.687,-0.016 -0.003,0.023 0.229,0.076 0.67,0.157 0.52,0.083 1.159,0.187 1.937,0.313 1.785,0.273 4.194,0.639 7.127,1.085 6.018,0.917 14.318,2.281 23.489,3.801 9.168,1.52 17.486,2.807 23.525,3.6 3.021,0.398 5.467,0.695 7.162,0.865 0.784,0.074 1.428,0.137 1.953,0.185 C -0.239,0.019 -0.004,0.024 0,0" /></g><g
           transform="translate(153.3556,132.1901)"
           id="g100"><path
             id="path102"
             style="fill:#1c9564;fill-opacity:1;fill-rule:nonzero;stroke:none"
             d="m 0,0 c -5.864,4.324 -8.484,11.982 -7.259,18.942 1.224,6.959 5.948,13.121 12.069,17.11 2.83,1.844 6.336,3.308 9.628,2.387 3.076,-0.86 5.219,-3.706 5.842,-6.698 0.623,-2.993 -0.05,-6.1 -1.099,-8.982 C 15.583,12.873 10.192,3.935 0,0" /></g><g
           transform="translate(143.737,115.3044)"
           id="g104"><path
             id="path106"
             style="fill:#1c9564;fill-opacity:1;fill-rule:nonzero;stroke:none"
             d="m 0,0 c -11.557,10.026 -28.412,14.223 -43.652,10.867 -3.881,-0.854 -8.249,-2.804 -8.889,-6.544 -0.639,-3.746 2.878,-6.922 6.331,-8.825 14.363,-7.92 33.819,-6.431 46.667,3.571" /></g><g
           transform="translate(88.0538,193.4821)"
           id="g108"><path
             id="path110"
             style="fill:#1c9564;fill-opacity:1;fill-rule:nonzero;stroke:none"
             d="m 0,0 c 6.406,1.672 13.428,0.168 19.097,-3.125 5.669,-3.292 10.105,-8.231 13.657,-13.569 6.874,-10.327 9.295,-24.206 9.6,-36.425 -14.261,0.548 -26.447,11.208 -32.271,16.985 C 0.876,-27.003 -9.933,-5.184 0,0" /></g><g
           transform="translate(165.3063,96.8542)"
           id="g112"><path
             id="path114"
             style="fill:#263238;fill-opacity:1;fill-rule:nonzero;stroke:none"
             d="m 0,0 c -0.781,1.273 -2.098,2.147 -3.358,4.492 -2.481,4.683 -5.811,11.348 -7.256,19.362 -1.437,8.027 0.002,15.692 2.496,20.75 1.22,2.542 2.552,4.476 3.613,5.718 1.053,1.248 1.744,1.864 1.806,1.822 0.24,-0.129 -2.349,-2.774 -4.482,-7.806 C -9.365,39.354 -10.6,31.94 -9.204,24.119 -7.797,16.295 -4.667,9.651 -2.43,4.887" /></g><g
           transform="translate(165.4401,96.6901)"
           id="g116"><path
             id="path118"
             style="fill:#263238;fill-opacity:1;fill-rule:nonzero;stroke:none"
             d="m 0,0 c -1.909,2.341 -4.409,5.408 -7.426,9.108 -6.25,7.705 -14.91,18.328 -24.639,29.943 -9.729,11.606 -18.683,22.006 -25.184,29.519 -3.12,3.623 -5.705,6.626 -7.679,8.918 -1.8,2.118 -2.76,3.319 -2.684,3.38 0.075,0.062 1.178,-1.02 3.11,-3.032 1.934,-2.009 4.679,-4.96 8.031,-8.641 6.706,-7.359 15.793,-17.672 25.533,-29.291 C -21.2,28.277 -12.658,17.55 -6.612,9.69 -3.588,5.762 -1.177,2.558 0.451,0.316" /></g><g
           transform="translate(108.9884,118.1462)"
           id="g120"><path
             id="path122"
             style="fill:#263238;fill-opacity:1;fill-rule:nonzero;stroke:none"
             d="m 0,0 c -0.022,0.093 0.855,0.344 2.474,0.72 0.807,0.204 1.803,0.413 2.98,0.542 1.173,0.142 2.508,0.38 4.002,0.408 2.979,0.222 6.553,0.103 10.477,-0.379 3.91,-0.561 8.161,-1.532 12.434,-3.082 4.253,-1.604 8.078,-3.619 11.359,-5.72 3.235,-2.166 5.953,-4.376 7.992,-6.454 1.082,-0.98 1.897,-2.014 2.66,-2.873 0.777,-0.85 1.362,-1.645 1.812,-2.313 0.926,-1.319 0.794,-1.935 0.713,-1.989 -0.229,-0.157 -1.681,2.62 -5.903,6.49 -2.091,1.951 -4.817,4.034 -8.016,6.093 -3.245,1.994 -6.991,3.924 -11.139,5.49 -4.168,1.511 -8.301,2.494 -12.109,3.11 C 15.916,0.581 12.427,0.798 9.499,0.702 3.637,0.563 0.057,-0.262 0,0" /></g></g></g><g
       id="g124"><g
         clip-path="url(#clipPath130)"
         id="g126"><g
           transform="translate(296.7438,66.2653)"
           id="g132"><path
             id="path134"
             style="fill:#263238;fill-opacity:1;fill-rule:nonzero;stroke:none"
             d="m 0,0 -115.5,0.534 c -13.892,0.063 -25.102,11.374 -25.043,25.265 l 1.224,289.562 c 0.058,13.9 11.376,25.118 25.275,25.054 L 1.457,339.881 C 15.349,339.817 26.559,328.507 26.5,314.616 L 25.276,25.053 C 25.217,11.153 13.899,-0.064 0,0" /></g><g
           transform="translate(298.0358,396.1535)"
           id="g136"><path
             id="path138"
             style="fill:#fafafa;fill-opacity:1;fill-rule:nonzero;stroke:none"
             d="m 0,0 -22.394,0.103 c -3.002,0.014 -5.448,-2.52 -5.46,-5.659 l -0.019,-4.062 c -0.012,-3.14 -2.458,-5.674 -5.461,-5.66 l -43.65,0.202 c -3.003,0.013 -5.427,2.57 -5.413,5.71 l 0.017,4.062 c 0.013,3.139 -2.411,5.696 -5.414,5.709 l -7.876,0.037 -19.6,0.09 c -9.734,0.045 -17.66,-7.812 -17.701,-17.546 l -1.195,-282.634 c -0.042,-9.729 7.81,-17.65 17.539,-17.695 l 115.27,-0.532 c 9.733,-0.045 17.66,7.811 17.701,17.545 l 1.195,282.635 C 17.58,-7.966 9.729,-0.045 0,0" /></g><g
           transform="translate(232.7999,105.3376)"
           id="g140"><path
             id="path142"
             style="fill:#455a64;fill-opacity:1;fill-rule:nonzero;stroke:none"
             d="m 0,0 c -0.005,-1.129 -1.074,-2.038 -2.387,-2.032 -1.313,0.006 -2.374,0.926 -2.37,2.053 0.006,1.129 1.074,2.04 2.387,2.033 C -1.057,2.048 0.004,1.129 0,0" /></g><g
           transform="translate(240.1696,105.3034)"
           id="g144"><path
             id="path146"
             style="fill:#455a64;fill-opacity:1;fill-rule:nonzero;stroke:none"
             d="M 0,0 C -0.005,-1.128 -1.073,-2.038 -2.387,-2.032 -3.7,-2.026 -4.761,-1.106 -4.756,0.022 -4.752,1.15 -3.683,2.061 -2.37,2.055 -1.056,2.049 0.004,1.129 0,0" /></g><g
           transform="translate(247.5387,105.2702)"
           id="g148"><path
             id="path150"
             style="fill:#455a64;fill-opacity:1;fill-rule:nonzero;stroke:none"
             d="M 0,0 C -0.004,-1.129 -1.073,-2.039 -2.387,-2.032 -3.7,-2.026 -4.761,-1.107 -4.756,0.021 -4.751,1.15 -3.683,2.06 -2.37,2.055 -1.056,2.049 0.005,1.129 0,0" /></g><g
           transform="translate(307.0084,447.0949)"
           id="g152"><path
             id="path154"
             style="fill:#25c685;fill-opacity:1;fill-rule:nonzero;stroke:none"
             d="m 0,0 c 0.145,0 0.261,-6.231 0.261,-13.917 0,-7.687 -0.116,-13.918 -0.261,-13.918 -0.144,0 -0.26,6.231 -0.26,13.918 C -0.26,-6.231 -0.144,0 0,0" /></g><g
           transform="translate(356.3297,415.0646)"
           id="g156"><path
             id="path158"
             style="fill:#25c685;fill-opacity:1;fill-rule:nonzero;stroke:none"
             d="m 0,0 c 0.059,-0.132 -5.596,-2.754 -12.627,-5.857 -7.033,-3.104 -12.78,-5.513 -12.838,-5.382 -0.058,0.132 5.595,2.754 12.628,5.858 C -5.806,-2.278 -0.058,0.131 0,0" /></g><g
           transform="translate(355.0836,463.6369)"
           id="g160"><path
             id="path162"
             style="fill:#25c685;fill-opacity:1;fill-rule:nonzero;stroke:none"
             d="m 0,0 c 0.016,-0.009 -0.077,-0.192 -0.268,-0.533 -0.223,-0.385 -0.506,-0.874 -0.855,-1.474 -0.746,-1.279 -1.864,-3.105 -3.262,-5.353 -2.8,-4.493 -6.83,-10.598 -11.394,-17.258 -4.566,-6.661 -8.639,-12.726 -11.516,-17.164 -1.407,-2.178 -2.559,-3.961 -3.4,-5.262 -0.382,-0.579 -0.692,-1.05 -0.938,-1.423 -0.219,-0.322 -0.342,-0.487 -0.357,-0.477 -0.015,0.009 0.077,0.192 0.268,0.532 0.224,0.386 0.506,0.874 0.855,1.475 0.746,1.278 1.864,3.104 3.262,5.353 2.799,4.492 6.831,10.598 11.396,17.26 4.563,6.659 8.637,12.723 11.514,17.161 1.407,2.178 2.559,3.961 3.4,5.263 0.382,0.579 0.692,1.05 0.938,1.422 C -0.138,-0.155 -0.016,0.01 0,0" /></g></g></g><g
       id="g164"><g
         clip-path="url(#clipPath170)"
         id="g166"><g
           transform="translate(336.1344,264.7497)"
           id="g172"><path
             id="path174"
             style="fill:#25c685;fill-opacity:1;fill-rule:nonzero;stroke:none"
             d="m 0,0 h -190.833 c -4.121,0 -7.462,-3.947 -7.462,-8.816 v -69.931 c 0,-4.869 3.341,-8.816 7.462,-8.816 h 29.57 H 0 c 4.121,0 7.463,3.947 7.463,8.816 V -8.816 C 7.463,-3.947 4.121,0 0,0" /></g><g
           transform="translate(293.8131,212.6638)"
           id="g176"><path
             id="path178"
             style="fill:#f5f5f5;fill-opacity:1;fill-rule:nonzero;stroke:none"
             d="m 0,0 c 0,-0.145 -22.713,-0.261 -50.724,-0.261 -28.021,0 -50.729,0.116 -50.729,0.261 0,0.144 22.708,0.26 50.729,0.26 C -22.713,0.26 0,0.144 0,0" /></g><g
           transform="translate(293.8131,202.0319)"
           id="g180"><path
             id="path182"
             style="fill:#f5f5f5;fill-opacity:1;fill-rule:nonzero;stroke:none"
             d="m 0,0 c 0,-0.144 -22.713,-0.26 -50.724,-0.26 -28.021,0 -50.729,0.116 -50.729,0.26 0,0.145 22.708,0.261 50.729,0.261 C -22.713,0.261 0,0.145 0,0" /></g><g
           transform="translate(258.8141,191.0202)"
           id="g184"><path
             id="path186"
             style="fill:#f5f5f5;fill-opacity:1;fill-rule:nonzero;stroke:none"
             d="m 0,0 c 0,-0.144 -14.877,-0.261 -33.226,-0.261 -18.354,0 -33.228,0.117 -33.228,0.261 0,0.144 14.874,0.261 33.228,0.261 C -14.877,0.261 0,0.144 0,0" /></g></g></g><g
       id="g188"><g
         clip-path="url(#clipPath194)"
         id="g190"><g
           transform="translate(225.0206,340.2326)"
           id="g196"><path
             id="path198"
             style="fill:#263238;fill-opacity:1;fill-rule:nonzero;stroke:none"
             d="m 0,0 c 0.134,1.837 -1.505,4.373 -3.024,5.83 -1.52,1.456 -2.46,3.433 -1.669,6.37 0.612,2.271 2.052,2.101 2.621,3.436 0.421,0.989 0.244,2.115 0.331,3.186 0.299,3.677 4.344,6.558 7.916,5.64 1.006,3.496 4.266,6.227 7.885,6.604 3.619,0.377 7.372,-1.624 9.077,-4.838 2.065,1.073 4.668,1.036 6.701,-0.096 2.035,-1.132 3.438,-3.324 3.614,-5.645 2.013,1.454 5.102,0.894 6.695,-1.011 1.594,-1.906 1.691,-4.822 0.482,-6.992 -1.21,-2.17 -3.555,-3.581 -6.009,-3.958 -2.455,-0.377 -4.994,0.203 -7.216,1.311 -2.223,1.108 -4.158,2.721 -5.92,4.472" /></g><g
           transform="translate(284.6608,267.5949)"
           id="g200"><path
             id="path202"
             style="fill:#e0e0e0;fill-opacity:1;fill-rule:nonzero;stroke:none"
             d="m 0,0 c 0,-23.348 -19.382,-42.275 -43.29,-42.275 -23.908,0 -43.29,18.927 -43.29,42.275 0,23.348 19.382,42.276 43.29,42.276 C -19.382,42.276 0,23.348 0,0" /></g><g
           transform="translate(284.8375,267.5593)"
           id="g204"><path
             id="path206"
             style="fill:#eb996e;fill-opacity:1;fill-rule:nonzero;stroke:none"
             d="M 0,0 -4.792,12.287 -21.965,1.498 -6.663,-22.099 c 0,0 6.225,8.085 6.663,22.099" /></g><g
           transform="translate(237.4288,294.1618)"
           id="g208"><path
             id="path210"
             style="fill:#ffbe9d;fill-opacity:1;fill-rule:nonzero;stroke:none"
             d="m 0,0 v 0 c 6.171,-0.01 11.263,4.784 11.567,10.893 0.254,5.088 0.467,9.987 0.467,9.987 0,0 9.447,0.685 10.319,9.92 0.871,9.235 0.99,30.593 0.99,30.593 -10.421,5.47 -23.011,4.924 -32.906,-1.429 l -0.899,-0.577 -1.091,-47.794 C -11.623,5.219 -6.433,0.01 0,0" /></g><g
           transform="translate(242.8497,341.3483)"
           id="g212"><path
             id="path214"
             style="fill:#263238;fill-opacity:1;fill-rule:nonzero;stroke:none"
             d="M 0,0 C 0.712,-0.234 1.098,-0.997 0.862,-1.703 0.626,-2.409 -0.143,-2.791 -0.855,-2.557 -1.568,-2.322 -1.954,-1.56 -1.718,-0.854 -1.481,-0.148 -0.712,0.234 0,0" /></g><g
           transform="translate(245.4381,340.8679)"
           id="g216"><path
             id="path218"
             style="fill:#263238;fill-opacity:1;fill-rule:nonzero;stroke:none"
             d="m 0,0 c -0.156,-0.151 -1.031,0.603 -2.317,0.685 -1.286,0.101 -2.26,-0.521 -2.392,-0.349 -0.066,0.078 0.097,0.358 0.523,0.641 0.419,0.281 1.123,0.535 1.924,0.478 C -1.46,1.397 -0.8,1.046 -0.427,0.708 -0.046,0.368 0.075,0.067 0,0" /></g><g
           transform="translate(256.9479,341.3483)"
           id="g220"><path
             id="path222"
             style="fill:#263238;fill-opacity:1;fill-rule:nonzero;stroke:none"
             d="M 0,0 C 0.713,-0.234 1.099,-0.997 0.862,-1.703 0.626,-2.409 -0.143,-2.791 -0.854,-2.557 -1.567,-2.322 -1.953,-1.56 -1.717,-0.854 -1.481,-0.148 -0.712,0.234 0,0" /></g><g
           transform="translate(259.7096,340.8395)"
           id="g224"><path
             id="path226"
             style="fill:#263238;fill-opacity:1;fill-rule:nonzero;stroke:none"
             d="m 0,0 c -0.156,-0.152 -1.031,0.603 -2.317,0.685 -1.286,0.101 -2.26,-0.521 -2.392,-0.349 -0.065,0.077 0.098,0.358 0.523,0.641 0.419,0.281 1.123,0.535 1.924,0.477 C -1.46,1.397 -0.8,1.046 -0.427,0.708 -0.046,0.368 0.075,0.067 0,0" /></g><g
           transform="translate(250.0065,330.8537)"
           id="g228"><path
             id="path230"
             style="fill:#263238;fill-opacity:1;fill-rule:nonzero;stroke:none"
             d="M 0,0 C -0.001,0.1 0.807,0.195 2.113,0.269 2.452,0.277 2.722,0.332 2.761,0.509 2.838,0.706 2.737,1.071 2.599,1.482 2.337,2.351 2.071,3.23 1.794,4.151 0.692,7.95 -0.043,11.074 0.151,11.129 0.346,11.185 1.396,8.151 2.499,4.352 2.757,3.425 3.004,2.541 3.248,1.667 3.34,1.271 3.536,0.803 3.318,0.268 3.203,0 2.922,-0.178 2.695,-0.217 2.468,-0.266 2.278,-0.251 2.116,-0.246 0.809,-0.187 0,-0.101 0,0" /></g><g
           transform="translate(249.4889,315.174)"
           id="g232"><path
             id="path234"
             style="fill:#eb996e;fill-opacity:1;fill-rule:nonzero;stroke:none"
             d="m 0,0 c 0,0 -5.934,0 -11.88,4.406 0,0 2.33,-6.885 11.706,-6.803 z" /></g><g
           transform="translate(226.7409,339.9836)"
           id="g236"><path
             id="path238"
             style="fill:#ffbe9d;fill-opacity:1;fill-rule:nonzero;stroke:none"
             d="M 0,0 C 0.009,0.748 -0.567,1.392 -1.32,1.427 -3.062,1.509 -5.925,0.879 -6.286,-3.882 -6.801,-10.683 -0.16,-9.113 -0.133,-8.919 -0.112,-8.767 -0.033,-2.646 0,0" /></g><g
           transform="translate(225.1456,333.7697)"
           id="g240"><path
             id="path242"
             style="fill:#eb996e;fill-opacity:1;fill-rule:nonzero;stroke:none"
             d="m 0,0 c -0.028,0.024 -0.125,-0.074 -0.334,-0.151 -0.205,-0.074 -0.548,-0.111 -0.895,0.049 -0.706,0.318 -1.229,1.504 -1.17,2.732 0.029,0.62 0.205,1.201 0.463,1.672 0.247,0.482 0.598,0.805 0.968,0.842 0.369,0.056 0.612,-0.18 0.681,-0.377 0.078,-0.198 0.024,-0.33 0.059,-0.344 0.018,-0.019 0.156,0.102 0.122,0.388 C -0.124,4.948 -0.192,5.114 -0.344,5.257 -0.499,5.402 -0.735,5.488 -0.992,5.479 -1.523,5.483 -2.037,5.036 -2.32,4.518 -2.633,4 -2.845,3.35 -2.878,2.654 -2.938,1.28 -2.327,-0.056 -1.357,-0.414 -0.884,-0.575 -0.47,-0.46 -0.25,-0.315 -0.024,-0.164 0.023,-0.014 0,0" /></g><g
           transform="translate(239.3507,344.4904)"
           id="g244"><path
             id="path246"
             style="fill:#263238;fill-opacity:1;fill-rule:nonzero;stroke:none"
             d="M 0,0 C 0.339,-0.437 1.522,-0.232 3.058,-0.167 4.591,-0.044 5.791,-0.102 6.07,0.372 6.388,0.866 4.904,1.999 2.926,1.837 0.945,1.756 -0.379,0.451 0,0" /></g><g
           transform="translate(254.3258,344.9426)"
           id="g248"><path
             id="path250"
             style="fill:#263238;fill-opacity:1;fill-rule:nonzero;stroke:none"
             d="m 0,0 c 0.186,-0.594 1.312,-0.772 2.562,-0.764 1.25,0.025 2.372,0.233 2.542,0.831 C 5.28,0.648 4.146,1.483 2.535,1.46 0.924,1.441 -0.189,0.576 0,0" /></g><g
           transform="translate(262.0856,352.6306)"
           id="g252"><path
             id="path254"
             style="fill:#263238;fill-opacity:1;fill-rule:nonzero;stroke:none"
             d="m 0,0 c 0,0 -5.604,-2.713 -12.897,0.927 -4.787,2.389 -10.365,3.556 -11.595,2.594 -1.23,-0.962 -1.489,-5.894 -6.23,-7.334 0,0 0.325,-9.408 -3.426,-9.073 -3.751,0.336 -1.407,14.908 -1.407,14.908 l 9.178,4.482 10.014,1.892 9.436,-1.33 7.302,-2 z" /></g><g
           transform="translate(199.2794,298.1862)"
           id="g256"><path
             id="path258"
             style="fill:#6952dc;fill-opacity:1;fill-rule:nonzero;stroke:none"
             d="m 0,0 c 9.806,10.085 27.068,8.985 27.068,8.985 l 14.307,-10.243 8.114,9.446 c 0,0 8.526,-0.936 16.515,-5.11 L 66.555,2.907 66.548,2.793 c 6.276,-3.408 15.163,-11.582 23.629,-19.514 l -10.131,-9.402 -11.213,-9.954 c 0,0 0.043,-0.072 0.019,-0.199 -0.117,-0.603 1.559,-14.295 3.275,-24.701 -10.212,-9.745 -23.229,-13.917 -37.681,-11.384 -4.587,0.803 -6.807,1.922 -11.054,3.036 -6.278,1.646 -10.828,7.09 -11.392,13.555 -0.764,8.722 -1.346,19.52 -1.346,19.52" /></g><g
           transform="translate(257.7399,304.6149)"
           id="g260"><path
             id="path262"
             style="fill:#263238;fill-opacity:1;fill-rule:nonzero;stroke:none"
             d="m 0,0 c 0.034,0.011 0.251,-0.562 0.616,-1.609 0.366,-1.046 0.865,-2.571 1.455,-4.463 1.182,-3.783 2.686,-9.052 4.108,-14.931 1.419,-5.883 2.485,-11.257 3.16,-15.163 0.339,-1.953 0.591,-3.536 0.741,-4.634 0.153,-1.098 0.222,-1.707 0.187,-1.713 -0.037,-0.006 -0.171,0.592 -0.386,1.679 -0.231,1.172 -0.535,2.723 -0.903,4.601 C 8.21,-32.35 7.089,-26.997 5.673,-21.125 4.253,-15.256 2.808,-9.982 1.719,-6.177 1.189,-4.338 0.753,-2.818 0.423,-1.67 0.118,-0.605 -0.034,-0.011 0,0" /></g><g
           transform="translate(266.9518,268.5627)"
           id="g264"><path
             id="path266"
             style="fill:#263238;fill-opacity:1;fill-rule:nonzero;stroke:none"
             d="m 0,0 c -0.091,0.112 4.187,3.747 9.554,8.12 5.368,4.373 9.793,7.827 9.883,7.716 C 19.528,15.725 15.251,12.089 9.883,7.716 4.517,3.343 0.091,-0.111 0,0" /></g><g
           id="g268"><g
             id="g270" /><g
             id="g282"><g
               style="opacity:0.19999701"
               id="g280"
               clip-path="url(#clipPath274)"><g
                 id="g278"
                 transform="translate(212.2243,284.3434)"><path
                   id="path276"
                   style="fill:#000000;fill-opacity:1;fill-rule:nonzero;stroke:none"
                   d="m 0,0 -8.778,-28.875 3.267,-1.698 3.22,8.166 c 0,0 3.309,17.155 2.291,22.407" /></g></g></g></g><g
           id="g284"><g
             id="g286" /><g
             id="g298"><g
               style="opacity:0.19999701"
               id="g296"
               clip-path="url(#clipPath290)"><g
                 id="g294"
                 transform="translate(256.7887,304.5974)"><path
                   id="path292"
                   style="fill:#000000;fill-opacity:1;fill-rule:nonzero;stroke:none"
                   d="m 0,0 c 4.73,-2.494 -7.127,-8.497 -12.483,-8.335 l 3.889,10.262 c 0,0 7.006,-1.09 8.594,-1.927" /></g></g></g></g><g
           transform="translate(224.9362,306.5241)"
           id="g300"><path
             id="path302"
             style="fill:#6952dc;fill-opacity:1;fill-rule:nonzero;stroke:none"
             d="m 0,0 v 7.646 c 0,0 14.934,-3.842 15.476,-12.778 0,0 1.9,9.877 9.594,10.35 l 1.087,-13.893 -8.954,-7.791 H 8.127 L 0.939,-10.265 0,-0.617" /></g><g
           transform="translate(243.7731,258.5309)"
           id="g304"><path
             id="path306"
             style="fill:#263238;fill-opacity:1;fill-rule:nonzero;stroke:none"
             d="m 0,0 c -0.036,0.002 -0.043,0.588 -0.026,1.645 0.022,1.056 0.042,2.585 0.047,4.473 0.013,3.776 -0.106,8.993 -0.579,14.733 -0.481,5.741 -1.225,10.907 -1.861,14.629 -0.319,1.791 -0.583,3.275 -0.784,4.404 -0.191,1.039 -0.28,1.618 -0.245,1.626 0.034,0.008 0.191,-0.556 0.444,-1.584 0.257,-1.027 0.584,-2.523 0.947,-4.381 0.731,-3.713 1.536,-8.89 2.018,-14.651 C 0.436,15.134 0.496,9.896 0.389,6.113 0.336,4.221 0.261,2.691 0.177,1.636 0.097,0.581 0.036,-0.002 0,0" /></g><g
           transform="translate(239.7252,303.9636)"
           id="g308"><path
             id="path310"
             style="fill:#263238;fill-opacity:1;fill-rule:nonzero;stroke:none"
             d="m 0,0 c -0.006,-0.044 -0.339,0.129 -0.886,-0.083 -0.571,-0.184 -1.081,-0.894 -1.499,-1.908 -0.917,-1.988 -2.052,-4.852 -2.841,-8.262 l -0.079,-0.342 -0.301,0.182 c -0.893,0.539 -1.809,1.122 -2.729,1.747 -1.785,1.215 -3.417,2.453 -4.843,3.679 -0.717,0.616 -1.309,1.364 -1.648,2.159 -0.336,0.795 -0.466,1.59 -0.504,2.306 -0.058,1.439 0.178,2.572 0.332,3.344 0.167,0.772 0.294,1.19 0.328,1.183 0.037,-0.007 -0.023,-0.44 -0.128,-1.217 -0.093,-0.776 -0.267,-1.909 -0.164,-3.286 0.058,-0.685 0.205,-1.429 0.53,-2.154 0.332,-0.724 0.87,-1.386 1.571,-1.974 1.412,-1.181 3.052,-2.408 4.818,-3.609 0.913,-0.619 1.819,-1.202 2.701,-1.743 l -0.38,-0.159 c 0.825,3.45 2.034,6.325 3.04,8.289 0.246,0.491 0.486,0.944 0.785,1.288 0.293,0.348 0.648,0.56 0.954,0.646 C -0.309,0.263 0.024,0.007 0,0" /></g><g
           transform="translate(250.0065,311.7424)"
           id="g312"><path
             id="path314"
             style="fill:#263238;fill-opacity:1;fill-rule:nonzero;stroke:none"
             d="m 0,0 c 0.036,0.001 0.083,-0.424 0.14,-1.193 0.065,-0.878 0.144,-1.966 0.239,-3.255 0.112,-1.371 0.278,-3 0.558,-4.794 0.109,-0.885 0.421,-1.847 0.18,-2.935 -0.309,-1.068 -1.114,-1.865 -1.965,-2.509 -1.196,-0.889 -2.446,-1.555 -3.286,-2.496 l -0.398,-0.446 -0.039,0.595 c -0.208,3.158 -1.262,5.757 -2.206,7.447 -0.949,1.703 -1.732,2.579 -1.67,2.629 0.02,0.018 0.234,-0.184 0.589,-0.59 0.353,-0.409 0.836,-1.035 1.355,-1.88 1.036,-1.676 2.186,-4.319 2.432,-7.572 l -0.437,0.149 c 0.913,1.037 2.205,1.725 3.346,2.579 0.814,0.606 1.532,1.357 1.785,2.221 0.212,0.876 -0.051,1.831 -0.16,2.737 -0.257,1.814 -0.386,3.46 -0.452,4.841 -0.065,1.381 -0.076,2.499 -0.073,3.271 0.004,0.773 0.026,1.2 0.062,1.201" /></g><g
           transform="translate(298.0748,309.8239)"
           id="g316"><path
             id="path318"
             style="fill:#263238;fill-opacity:1;fill-rule:nonzero;stroke:none"
             d="m 0,0 c -0.607,-0.715 -22.593,-30.114 -22.593,-30.114 l 3.095,-1.754 22.561,29.025 z" /></g><g
           transform="translate(209.7516,286.5807)"
           id="g320"><path
             id="path322"
             style="fill:#ffbe9d;fill-opacity:1;fill-rule:nonzero;stroke:none"
             d="m 0,0 c 0,0 23.129,-33.294 24.523,-33.949 2.745,-1.288 34.388,26.056 37.406,28.673 0.415,0.555 1.273,1.728 2.959,4.059 0,0 2.496,11.425 5.161,10.547 2.664,-0.877 -1.46,-5.805 0.274,-10.145 1.736,-4.341 9.682,6.012 10,6.941 l 2.049,2.677 c 0,0 2.149,-6.093 2.004,-8.636 -0.467,-8.15 -8.178,-17.843 -8.178,-17.843 0,0 -34.63,-42.898 -58.35,-44.229 -6.832,-0.383 -18.973,19.002 -27.09,33.538 -4.902,8.779 -2.456,19.837 5.668,25.761 z" /></g><g
           transform="translate(290.235,285.299)"
           id="g324"><path
             id="path326"
             style="fill:#eb996e;fill-opacity:1;fill-rule:nonzero;stroke:none"
             d="M 0,0 C -0.077,0.047 0.664,1.356 1.481,3.016 2.305,4.674 2.896,6.056 2.98,6.024 3.058,5.996 2.593,4.551 1.762,2.877 0.936,1.202 0.069,-0.045 0,0" /></g><g
           transform="translate(205.8361,302.8288)"
           id="g328"><path
             id="path330"
             style="fill:#6952dc;fill-opacity:1;fill-rule:nonzero;stroke:none"
             d="m 0,0 c 0,0 -24.826,-8.826 -6.368,-50.574 l 28.659,17.297 -4.077,9.762 z" /></g><g
           transform="translate(203.9342,302.1066)"
           id="g332"><path
             id="path334"
             style="fill:#263238;fill-opacity:1;fill-rule:nonzero;stroke:none"
             d="m 0,0 c 0,0 1.083,0.179 2.989,-0.251 0.94,-0.243 2.07,-0.658 3.255,-1.374 1.187,-0.711 2.42,-1.711 3.617,-2.968 2.41,-2.511 4.658,-6.016 6.743,-10.075 2.101,-4.06 4.061,-8.682 6.07,-13.54 0.602,-1.455 1.196,-2.889 1.757,-4.248 l 0.09,-0.215 -0.205,-0.111 c -8.291,-4.52 -15.512,-8.753 -20.614,-11.921 -2.554,-1.581 -4.588,-2.88 -5.984,-3.783 -0.667,-0.429 -1.201,-0.771 -1.608,-1.033 -0.369,-0.232 -0.567,-0.347 -0.576,-0.333 -0.01,0.014 0.17,0.155 0.521,0.414 0.353,0.256 0.873,0.637 1.558,1.108 1.365,0.953 3.372,2.299 5.904,3.92 5.06,3.25 12.259,7.543 20.552,12.082 l -0.115,-0.326 c -0.563,1.358 -1.158,2.792 -1.761,4.247 -2.009,4.856 -3.95,9.471 -6.015,13.52 -2.051,4.049 -4.246,7.537 -6.584,10.041 -1.162,1.253 -2.355,2.253 -3.502,2.972 -1.146,0.726 -2.24,1.159 -3.155,1.427 C 1.084,0.036 -0.005,-0.073 0,0" /></g><g
           transform="translate(257.3385,364.0021)"
           id="g336"><path
             id="path338"
             style="fill:#455a64;fill-opacity:1;fill-rule:nonzero;stroke:none"
             d="M 0,0 C 0.018,0.003 0.06,-0.146 0.123,-0.436 0.169,-0.728 0.23,-1.166 0.195,-1.732 0.14,-2.841 -0.264,-4.561 -1.698,-6.061 -3.085,-7.564 -5.722,-8.513 -8.38,-7.749 c -1.301,0.38 -2.616,1.173 -3.421,2.48 -0.391,0.648 -0.625,1.453 -0.512,2.259 0.108,0.789 0.506,1.588 1.228,2.063 0.721,0.489 1.669,0.475 2.4,0.155 0.741,-0.315 1.354,-0.919 1.641,-1.65 0.586,-1.468 0.154,-3.054 -0.656,-4.156 -1.723,-2.281 -4.834,-2.465 -6.557,-1.425 -0.911,0.418 -1.714,0.811 -2.471,0.947 -0.753,0.155 -1.421,0.023 -1.91,-0.201 -0.981,-0.472 -1.378,-0.994 -1.423,-0.937 -0.013,0.012 0.087,0.13 0.292,0.344 0.102,0.108 0.228,0.244 0.409,0.368 0.172,0.134 0.372,0.29 0.635,0.408 0.502,0.267 1.233,0.444 2.046,0.305 0.816,-0.118 1.662,-0.507 2.568,-0.897 0.456,-0.185 0.934,-0.386 1.443,-0.477 0.5,-0.086 1.06,-0.076 1.611,0.03 1.102,0.198 2.231,0.802 2.97,1.819 0.723,0.994 1.082,2.44 0.572,3.676 -0.447,1.206 -2.128,2.024 -3.285,1.256 -0.565,-0.367 -0.908,-1.03 -1,-1.698 -0.095,-0.671 0.094,-1.349 0.437,-1.927 0.704,-1.162 1.913,-1.919 3.118,-2.281 2.47,-0.736 4.951,0.105 6.285,1.486 1.389,1.383 1.84,3.015 1.953,4.086 C 0.111,-0.619 -0.058,-0.007 0,0" /></g><g
           transform="translate(258.985,360.634)"
           id="g340"><path
             id="path342"
             style="fill:#455a64;fill-opacity:1;fill-rule:nonzero;stroke:none"
             d="m 0,0 c 0.047,0.024 0.416,-0.64 0.48,-1.837 0.076,-1.172 -0.265,-2.915 -1.483,-4.329 -1.226,-1.406 -2.904,-1.99 -4.075,-2.082 -1.194,-0.105 -1.903,0.166 -1.886,0.216 0.012,0.089 0.727,-0.043 1.837,0.149 1.095,0.178 2.613,0.777 3.731,2.059 1.11,1.287 1.487,2.875 1.508,3.984 C 0.146,-0.714 -0.087,-0.025 0,0" /></g><g
           transform="translate(225.1676,276.9645)"
           id="g344"><path
             id="path346"
             style="fill:#e0e0e0;fill-opacity:1;fill-rule:nonzero;stroke:none"
             d="m 0,0 c 0.063,-0.128 -6.53,-3.519 -14.726,-7.572 -8.199,-4.053 -14.895,-7.234 -14.959,-7.105 -0.064,0.129 6.529,3.518 14.728,7.572 C -6.761,-3.052 -0.064,0.129 0,0" /></g><g
           transform="translate(219.1579,288.3058)"
           id="g348"><path
             id="path350"
             style="fill:#e0e0e0;fill-opacity:1;fill-rule:nonzero;stroke:none"
             d="m 0,0 c 0.068,-0.126 -5.802,-3.409 -13.109,-7.331 -7.309,-3.923 -13.287,-6.999 -13.356,-6.873 -0.068,0.127 5.8,3.409 13.11,7.332 C -6.048,-2.95 -0.068,0.127 0,0" /></g><g
           transform="translate(213.3522,297.4777)"
           id="g352"><path
             id="path354"
             style="fill:#e0e0e0;fill-opacity:1;fill-rule:nonzero;stroke:none"
             d="m 0,0 c 0.034,-0.066 -1.097,-0.714 -2.936,-1.738 -1.966,-1.096 -4.441,-2.477 -7.179,-4.005 -2.724,-1.553 -5.187,-2.957 -7.143,-4.072 -1.827,-1.045 -2.967,-1.677 -3.006,-1.614 -0.036,0.059 1.035,0.803 2.816,1.929 1.781,1.127 4.276,2.63 7.077,4.211 2.801,1.579 5.377,2.936 7.263,3.877 C -1.223,-0.471 -0.032,0.062 0,0" /></g><g
           transform="translate(235.3131,299.6462)"
           id="g356"><path
             id="path358"
             style="fill:#e0e0e0;fill-opacity:1;fill-rule:nonzero;stroke:none"
             d="m 0,0 c -0.014,-0.06 -0.783,0.041 -1.932,0.52 -1.149,0.469 -2.635,1.372 -4.044,2.632 -1.409,1.26 -2.502,2.571 -3.261,3.532 -0.756,0.965 -1.182,1.593 -1.128,1.638 0.056,0.047 0.585,-0.499 1.409,-1.4 C -8.129,6.025 -7.005,4.771 -5.629,3.541 -4.255,2.312 -2.854,1.395 -1.776,0.854 -0.702,0.304 0.022,0.079 0,0" /></g><g
           transform="translate(249.9005,305.0627)"
           id="g360"><path
             id="path362"
             style="fill:#e0e0e0;fill-opacity:1;fill-rule:nonzero;stroke:none"
             d="m 0,0 c 0.126,-0.037 -0.479,-1.665 -2.077,-2.998 -1.586,-1.348 -3.293,-1.667 -3.308,-1.536 -0.05,0.15 1.489,0.668 2.972,1.935 C -0.912,-1.354 -0.139,0.075 0,0" /></g><g
           transform="translate(275.903,290.0139)"
           id="g364"><path
             id="path366"
             style="fill:#e0e0e0;fill-opacity:1;fill-rule:nonzero;stroke:none"
             d="m 0,0 c 0.002,-0.018 -0.189,-0.053 -0.557,-0.104 -0.425,-0.053 -0.957,-0.118 -1.608,-0.198 -1.398,-0.155 -3.426,-0.35 -5.935,-0.545 -5.015,-0.4 -11.955,-0.792 -19.625,-1.071 -7.674,-0.269 -14.625,-0.373 -19.656,-0.331 -2.515,0.016 -4.551,0.065 -5.957,0.12 -0.656,0.034 -1.191,0.061 -1.619,0.083 -0.369,0.025 -0.563,0.046 -0.563,0.065 0.001,0.018 0.196,0.031 0.566,0.04 0.428,0.004 0.963,0.009 1.619,0.015 1.479,0.011 3.494,0.027 5.953,0.045 5.027,0.053 11.97,0.215 19.638,0.483 7.665,0.279 14.602,0.613 19.619,0.919 2.454,0.156 4.466,0.284 5.941,0.378 0.656,0.041 1.19,0.075 1.617,0.101 0.37,0.018 0.566,0.018 0.567,0" /></g><g
           transform="translate(268.0065,278.1559)"
           id="g368"><path
             id="path370"
             style="fill:#e0e0e0;fill-opacity:1;fill-rule:nonzero;stroke:none"
             d="m 0,0 c 0.003,-0.036 -0.582,-0.126 -1.644,-0.259 -1.061,-0.132 -2.6,-0.298 -4.505,-0.469 -3.81,-0.351 -9.083,-0.714 -14.914,-0.951 -5.834,-0.234 -11.121,-0.298 -14.946,-0.256 -1.912,0.018 -3.46,0.059 -4.528,0.105 -1.069,0.047 -1.66,0.09 -1.659,0.126 10e-4,0.036 0.592,0.061 1.661,0.077 1.158,0.016 2.683,0.036 4.526,0.061 3.82,0.052 9.098,0.173 14.925,0.407 5.824,0.237 11.094,0.541 14.906,0.798 1.838,0.124 3.36,0.226 4.516,0.304 C -0.596,0.014 -0.004,0.036 0,0" /></g><g
           transform="translate(250.0812,263.5295)"
           id="g372"><path
             id="path374"
             style="fill:#e0e0e0;fill-opacity:1;fill-rule:nonzero;stroke:none"
             d="m 0,0 c 0.007,-0.069 -1.259,-0.256 -3.314,-0.467 -2.055,-0.212 -4.901,-0.44 -8.05,-0.597 -3.149,-0.156 -6.004,-0.211 -8.07,-0.206 -2.066,0.007 -3.343,0.067 -3.344,0.137 -0.001,0.073 1.275,0.144 3.337,0.232 2.21,0.098 4.983,0.221 8.051,0.358 3.066,0.168 5.838,0.321 8.047,0.443 C -1.283,0.017 -0.006,0.074 0,0" /></g><g
           transform="translate(227.1662,298.2365)"
           id="g376"><path
             id="path378"
             style="fill:#e0e0e0;fill-opacity:1;fill-rule:nonzero;stroke:none"
             d="m 0,0 c -0.004,-0.149 -3.071,-0.182 -6.847,-0.341 -3.776,-0.152 -6.836,-0.37 -6.851,-0.222 -0.016,0.138 3.033,0.59 6.83,0.743 C -3.073,0.339 0.004,0.138 0,0" /></g><g
           transform="translate(269.3522,298.7766)"
           id="g380"><path
             id="path382"
             style="fill:#e0e0e0;fill-opacity:1;fill-rule:nonzero;stroke:none"
             d="m 0,0 c 0,-0.144 -3.979,-0.246 -8.886,-0.227 -4.908,0.019 -8.884,0.15 -8.884,0.294 0,0.144 3.978,0.245 8.886,0.227 C -3.978,0.275 0.001,0.144 0,0" /></g><g
           transform="translate(270.8883,237.9265)"
           id="g384"><path
             id="path386"
             style="fill:#e0e0e0;fill-opacity:1;fill-rule:nonzero;stroke:none"
             d="m 0,0 c 0.015,-0.032 -0.31,-0.217 -0.911,-0.523 -0.6,-0.311 -1.488,-0.718 -2.602,-1.185 -2.224,-0.936 -5.386,-2.041 -8.982,-2.873 -3.598,-0.825 -6.925,-1.217 -9.335,-1.349 -1.206,-0.068 -2.183,-0.091 -2.857,-0.073 -0.675,0.012 -1.048,0.035 -1.048,0.071 -0.002,0.083 1.486,0.141 3.876,0.37 2.389,0.225 5.679,0.669 9.247,1.489 3.565,0.825 6.717,1.865 8.965,2.708 C -1.399,-0.524 -0.035,0.075 0,0" /></g></g></g></g></svg>